<svg width="11" height="11" viewBox="0 0 11 11" fill="none" xmlns="http://www.w3.org/2000/svg">
<path d="M5.5525 8.93878L5.5 8.99128L5.44225 8.93878C2.9485 6.67603 1.3 5.17978 1.3 3.66253C1.3 2.61252 2.0875 1.82502 3.1375 1.82502C3.946 1.82502 4.7335 2.35002 5.01175 3.06403H5.98825C6.2665 2.35002 7.054 1.82502 7.8625 1.82502C8.9125 1.82502 9.7 2.61252 9.7 3.66253C9.7 5.17978 8.0515 6.67603 5.5525 8.93878ZM7.8625 0.775024C6.949 0.775024 6.07225 1.20027 5.5 1.86702C4.92775 1.20027 4.051 0.775024 3.1375 0.775024C1.5205 0.775024 0.25 2.04027 0.25 3.66253C0.25 5.64178 2.035 7.26403 4.73875 9.71578L5.5 10.4088L6.26125 9.71578C8.965 7.26403 10.75 5.64178 10.75 3.66253C10.75 2.04027 9.4795 0.775024 7.8625 0.775024Z" fill="#2979FF"/>
</svg>
